<svg version="1.1" id="Layer_1" xmlns="http://www.w3.org/2000/svg" xmlns:xlink="http://www.w3.org/1999/xlink" x="0px" y="0px"
	 width="100%" viewBox="0 0 310 315" enable-background="new 0 0 310 315" xml:space="preserve">
<path fill="inherit" opacity="0.000000" stroke="none" 
	d="
M311.000000,77.000000 
	C311.000000,88.354225 311.000000,99.708458 310.609253,111.542709 
	C307.533905,110.861526 304.310577,110.288605 302.272156,108.421852 
	C297.387909,103.948959 292.741791,99.125885 288.576172,93.977570 
	C280.290833,83.737617 270.069061,75.980583 258.750214,69.544449 
	C253.473450,66.543961 248.727631,68.746864 244.392776,70.674133 
	C246.801834,77.712311 249.112579,83.833397 250.976288,90.087700 
	C252.791519,96.179283 249.532150,100.866684 243.202576,101.113510 
	C240.502563,101.218796 237.484940,100.557671 235.068512,99.338974 
	C221.204147,92.346695 206.813171,93.264435 192.192184,95.789345 
	C186.929504,96.698158 184.736603,99.671555 184.937164,104.759186 
	C185.271149,113.231071 185.635895,121.701752 185.990234,130.172821 
	C186.137100,133.683807 187.888824,134.548111 190.954941,133.132278 
	C195.332184,131.111023 199.589127,128.759735 204.112259,127.154846 
	C206.210831,126.410240 209.547897,126.200890 210.985046,127.380104 
	C212.417374,128.555374 212.144577,131.779190 212.675507,134.091934 
	C213.101913,135.949310 213.458588,137.846542 214.138641,139.613541 
	C214.600342,140.813187 216.106400,141.766617 216.216675,142.919006 
	C216.713028,148.105820 220.351776,149.621140 224.556519,150.691788 
	C242.617691,155.290649 249.068878,169.436722 253.033264,185.527084 
	C255.856094,196.984238 252.031815,207.300552 246.583054,216.982025 
	C235.982880,235.816666 219.122437,247.771362 200.358795,257.302338 
	C193.408310,260.832825 186.049057,263.557648 178.881256,266.661591 
	C173.533279,268.977448 169.122421,276.076172 171.344788,280.705780 
	C173.580154,285.362396 178.739594,282.989594 182.474472,282.667999 
	C202.643173,280.931335 222.077698,276.085968 240.639206,267.893188 
	C264.313019,257.443909 284.649536,242.722122 300.613922,222.093414 
	C303.510254,218.350861 305.211243,212.932159 311.000000,212.000000 
	C311.000000,225.354233 311.000000,238.708450 310.663269,252.594452 
	C308.558838,254.615860 306.730225,256.039612 305.034210,257.606873 
	C298.577942,263.572968 292.616943,270.179626 285.657288,275.478363 
	C254.268143,299.376465 218.788193,312.333313 179.282700,314.102814 
	C177.497055,314.182831 175.759796,315.342926 174.000000,316.000000 
	C163.645767,316.000000 153.291550,316.000000 142.337265,315.663727 
	C140.157349,314.568665 138.651138,313.483093 136.984879,313.107544 
	C129.706329,311.466797 122.301018,310.341125 115.087883,308.466156 
	C91.198036,302.256378 69.173584,292.004761 49.345146,277.215576 
	C34.708370,266.298584 22.303459,253.264175 12.423450,237.873795 
	C8.603638,231.923569 4.807131,225.958374 1.000002,220.000000 
	C1.000000,185.312439 1.000000,150.624878 1.328767,115.361496 
	C2.445155,113.563667 3.458023,112.431610 3.987282,111.106407 
	C15.569460,82.105927 34.866714,59.185268 60.737186,42.270733 
	C88.785896,23.932020 120.112907,13.982006 153.552200,12.159686 
	C186.285431,10.375846 218.157730,15.049615 248.035461,29.489824 
	C253.452026,32.107708 258.608490,32.298584 263.729492,29.484959 
	C272.879333,24.457779 282.257690,19.710384 290.815002,13.796280 
	C295.333160,10.673682 298.321136,5.337026 302.000000,0.999999 
	C304.968384,1.000000 307.936768,1.000000 311.000000,1.000000 
	C311.000000,11.687411 311.000000,22.375048 310.657715,33.576027 
	C302.783386,40.395927 295.251312,46.702484 287.338806,53.327572 
	C288.710968,54.889194 289.814514,56.275539 291.051758,57.530003 
	C295.777374,62.321430 300.521484,67.095291 305.311127,71.822517 
	C307.134552,73.622192 309.099548,75.278404 311.000000,77.000000 
M84.263626,264.186798 
	C101.768547,273.003784 120.300827,278.605591 139.631439,281.535675 
	C141.474167,281.814972 145.151947,280.594452 145.273575,279.701782 
	C145.696732,276.596100 143.676651,274.484161 140.320831,274.134918 
	C139.495468,274.049011 138.656631,274.102753 137.825867,274.057495 
	C120.117668,273.093811 102.802208,270.776703 87.431313,260.781708 
	C75.784233,253.208176 66.942421,243.383484 62.209366,230.225525 
	C57.996735,218.514328 58.504559,206.472397 59.879208,194.301025 
	C62.411800,171.876999 71.755730,151.889389 81.953445,132.302277 
	C90.156372,116.546646 102.737404,104.440323 117.130920,94.210991 
	C122.057159,90.709953 127.070152,87.330963 132.043518,83.896225 
	C131.903397,83.411880 131.763260,82.927536 131.623138,82.443192 
	C125.189964,83.428963 118.676888,84.056297 112.338882,85.469070 
	C94.747147,89.390373 78.152649,95.983536 62.200169,104.401840 
	C47.954121,111.919670 35.389599,121.600174 24.014660,132.844131 
	C18.565731,138.230316 15.111831,144.941803 15.014671,152.829865 
	C14.884249,163.418594 14.216321,174.102585 15.370889,184.570099 
	C16.164978,191.769501 18.713745,199.186157 22.187605,205.576492 
	C26.656843,213.797897 32.561977,221.302826 38.337181,228.736832 
	C50.399223,244.263428 66.481483,254.783279 84.263626,264.186798 
M161.790298,113.175545 
	C159.732086,106.642639 157.419357,105.240616 151.881012,108.937302 
	C139.069977,117.488289 125.451630,125.354500 114.342384,135.815338 
	C94.448441,154.548157 84.897041,178.866089 83.091492,206.085098 
	C82.822823,210.135483 82.298386,215.343262 84.396927,218.128387 
	C88.582176,223.683029 93.840141,229.118240 99.844154,232.477386 
	C114.598732,240.732330 131.087524,240.758087 147.501785,239.879089 
	C151.163208,239.683014 153.706116,238.165085 154.484634,234.133148 
	C157.156296,220.296570 160.131378,206.517365 162.687057,192.660294 
	C163.450714,188.519638 160.666733,186.577591 156.503265,187.793884 
	C154.916138,188.257538 153.436737,189.078934 151.863358,189.602386 
	C142.750397,192.634216 133.738251,196.065781 124.461441,198.473969 
	C118.426880,200.040497 112.862129,197.656708 109.173279,192.408829 
	C105.837456,187.663208 106.713371,182.637283 109.197151,177.757919 
	C109.795288,176.582870 111.067841,175.380127 110.972443,174.282028 
	C110.236473,165.810699 116.020798,162.212494 122.371819,159.904007 
	C134.359406,155.546753 146.566879,151.765747 158.793121,148.114090 
	C161.823441,147.208984 162.954193,145.884293 162.852921,142.961258 
	C162.519073,133.324646 162.231476,123.686447 161.790298,113.175545 
M210.207352,214.729858 
	C215.925064,209.211395 222.144608,204.112747 227.214554,198.052368 
	C231.961761,192.377762 230.716278,188.364502 224.217865,184.750153 
	C216.014328,180.187485 206.998199,178.859726 197.747818,178.993271 
	C191.134018,179.088760 188.708054,181.782074 187.987228,188.411346 
	C186.967392,197.790512 185.624176,207.134827 184.391388,216.490387 
	C183.861237,220.513733 183.261368,224.527893 182.593933,229.247925 
	C193.281006,226.381653 201.455856,220.776474 210.207352,214.729858 
M191.874527,45.818859 
	C191.966309,45.704552 192.142303,45.578640 192.128555,45.478867 
	C192.111298,45.353466 191.950012,45.164291 191.831482,45.148544 
	C187.405792,44.560616 182.992203,43.773598 178.546112,43.478016 
	C174.252548,43.192577 169.925156,43.416199 165.612625,43.416199 
	C165.530762,44.080704 165.448898,44.745213 165.367035,45.409718 
	C167.420639,45.933861 169.482773,46.931778 171.526276,46.894978 
	C178.155258,46.775593 184.777405,46.276943 191.874527,45.818859 
M148.121109,47.625523 
	C150.492340,45.749928 148.968750,44.961609 147.158524,45.155651 
	C138.924942,46.038223 130.716644,47.156803 122.499252,48.190495 
	C122.579033,48.799641 122.658806,49.408791 122.738586,50.017941 
	C130.966522,49.280281 139.194458,48.542618 148.121109,47.625523 
z"/>
<path fill="#ffffff" opacity="1.000000" stroke="none" 
	d="
M311.000000,211.531342 
	C305.211243,212.932159 303.510254,218.350861 300.613922,222.093414 
	C284.649536,242.722122 264.313019,257.443909 240.639206,267.893188 
	C222.077698,276.085968 202.643173,280.931335 182.474472,282.667999 
	C178.739594,282.989594 173.580154,285.362396 171.344788,280.705780 
	C169.122421,276.076172 173.533279,268.977448 178.881256,266.661591 
	C186.049057,263.557648 193.408310,260.832825 200.358795,257.302338 
	C219.122437,247.771362 235.982880,235.816666 246.583054,216.982025 
	C252.031815,207.300552 255.856094,196.984238 253.033264,185.527084 
	C249.068878,169.436722 242.617691,155.290649 224.556519,150.691788 
	C220.351776,149.621140 216.713028,148.105820 216.216675,142.919006 
	C216.106400,141.766617 214.600342,140.813187 214.138641,139.613541 
	C213.458588,137.846542 213.101913,135.949310 212.675507,134.091934 
	C212.144577,131.779190 212.417374,128.555374 210.985046,127.380104 
	C209.547897,126.200890 206.210831,126.410240 204.112259,127.154846 
	C199.589127,128.759735 195.332184,131.111023 190.954941,133.132278 
	C187.888824,134.548111 186.137100,133.683807 185.990234,130.172821 
	C185.635895,121.701752 185.271149,113.231071 184.937164,104.759186 
	C184.736603,99.671555 186.929504,96.698158 192.192184,95.789345 
	C206.813171,93.264435 221.204147,92.346695 235.068512,99.338974 
	C237.484940,100.557671 240.502563,101.218796 243.202576,101.113510 
	C249.532150,100.866684 252.791519,96.179283 250.976288,90.087700 
	C249.112579,83.833397 246.801834,77.712311 244.392776,70.674133 
	C248.727631,68.746864 253.473450,66.543961 258.750214,69.544449 
	C270.069061,75.980583 280.290833,83.737617 288.576172,93.977570 
	C292.741791,99.125885 297.387909,103.948959 302.272156,108.421852 
	C304.310577,110.288605 307.533905,110.861526 310.609253,112.011368 
	C311.000000,145.020889 311.000000,178.041794 311.000000,211.531342 
z"/>
<path fill="#ffffff" opacity="1.000000" stroke="none" 
	d="
M301.531342,0.999999 
	C298.321136,5.337026 295.333160,10.673682 290.815002,13.796280 
	C282.257690,19.710384 272.879333,24.457779 263.729492,29.484959 
	C258.608490,32.298584 253.452026,32.107708 248.035461,29.489824 
	C218.157730,15.049615 186.285431,10.375846 153.552200,12.159686 
	C120.112907,13.982006 88.785896,23.932020 60.737186,42.270733 
	C34.866714,59.185268 15.569460,82.105927 3.987282,111.106407 
	C3.458023,112.431610 2.445155,113.563667 1.328767,114.892838 
	C1.000000,77.040092 1.000000,39.080189 1.000000,1.000000 
	C101.020866,1.000000 201.041779,1.000000 301.531342,0.999999 
z"/>
<path fill="#ffffff" opacity="1.000000" stroke="none" 
	d="
M1.000002,220.468658 
	C4.807131,225.958374 8.603638,231.923569 12.423450,237.873795 
	C22.303459,253.264175 34.708370,266.298584 49.345146,277.215576 
	C69.173584,292.004761 91.198036,302.256378 115.087883,308.466156 
	C122.301018,310.341125 129.706329,311.466797 136.984879,313.107544 
	C138.651138,313.483093 140.157349,314.568665 141.868607,315.663727 
	C95.086906,316.000000 48.173817,316.000000 1.000000,316.000000 
	C1.000000,284.312927 1.000000,252.625122 1.000002,220.468658 
z"/>
<path fill="#ffffff" opacity="1.000000" stroke="none" 
	d="
M174.468658,316.000000 
	C175.759796,315.342926 177.497055,314.182831 179.282700,314.102814 
	C218.788193,312.333313 254.268143,299.376465 285.657288,275.478363 
	C292.616943,270.179626 298.577942,263.572968 305.034210,257.606873 
	C306.730225,256.039612 308.558838,254.615860 310.663269,253.063110 
	C311.000000,273.953979 311.000000,294.907928 311.000000,316.000000 
	C265.645874,316.000000 220.291595,316.000000 174.468658,316.000000 
z"/>
<path fill="#ffffff" opacity="1.000000" stroke="none" 
	d="
M311.000000,76.531342 
	C309.099548,75.278404 307.134552,73.622192 305.311127,71.822517 
	C300.521484,67.095291 295.777374,62.321430 291.051758,57.530003 
	C289.814514,56.275539 288.710968,54.889194 287.338806,53.327572 
	C295.251312,46.702484 302.783386,40.395927 310.657715,34.044685 
	C311.000000,48.020893 311.000000,62.041790 311.000000,76.531342 
z"/>
<path fill="#ffffff" opacity="1.000000" stroke="none" 
	d="
M83.902756,264.082550 
	C66.481483,254.783279 50.399223,244.263428 38.337181,228.736832 
	C32.561977,221.302826 26.656843,213.797897 22.187605,205.576492 
	C18.713745,199.186157 16.164978,191.769501 15.370889,184.570099 
	C14.216321,174.102585 14.884249,163.418594 15.014671,152.829865 
	C15.111831,144.941803 18.565731,138.230316 24.014660,132.844131 
	C35.389599,121.600174 47.954121,111.919670 62.200169,104.401840 
	C78.152649,95.983536 94.747147,89.390373 112.338882,85.469070 
	C118.676888,84.056297 125.189964,83.428963 131.623138,82.443192 
	C131.763260,82.927536 131.903397,83.411880 132.043518,83.896225 
	C127.070152,87.330963 122.057159,90.709953 117.130920,94.210991 
	C102.737404,104.440323 90.156372,116.546646 81.953445,132.302277 
	C71.755730,151.889389 62.411800,171.876999 59.879208,194.301025 
	C58.504559,206.472397 57.996735,218.514328 62.209366,230.225525 
	C66.942421,243.383484 75.784233,253.208176 87.431313,260.781708 
	C102.802208,270.776703 120.117668,273.093811 137.825867,274.057495 
	C138.656631,274.102753 139.495468,274.049011 140.320831,274.134918 
	C143.676651,274.484161 145.696732,276.596100 145.273575,279.701782 
	C145.151947,280.594452 141.474167,281.814972 139.631439,281.535675 
	C120.300827,278.605591 101.768547,273.003784 83.902756,264.082550 
z"/>
<path fill="#ffffff" opacity="1.000000" stroke="none" 
	d="
M161.858215,113.612198 
	C162.231476,123.686447 162.519073,133.324646 162.852921,142.961258 
	C162.954193,145.884293 161.823441,147.208984 158.793121,148.114090 
	C146.566879,151.765747 134.359406,155.546753 122.371819,159.904007 
	C116.020798,162.212494 110.236473,165.810699 110.972443,174.282028 
	C111.067841,175.380127 109.795288,176.582870 109.197151,177.757919 
	C106.713371,182.637283 105.837456,187.663208 109.173279,192.408829 
	C112.862129,197.656708 118.426880,200.040497 124.461441,198.473969 
	C133.738251,196.065781 142.750397,192.634216 151.863358,189.602386 
	C153.436737,189.078934 154.916138,188.257538 156.503265,187.793884 
	C160.666733,186.577591 163.450714,188.519638 162.687057,192.660294 
	C160.131378,206.517365 157.156296,220.296570 154.484634,234.133148 
	C153.706116,238.165085 151.163208,239.683014 147.501785,239.879089 
	C131.087524,240.758087 114.598732,240.732330 99.844154,232.477386 
	C93.840141,229.118240 88.582176,223.683029 84.396927,218.128387 
	C82.298386,215.343262 82.822823,210.135483 83.091492,206.085098 
	C84.897041,178.866089 94.448441,154.548157 114.342384,135.815338 
	C125.451630,125.354500 139.069977,117.488289 151.881012,108.937302 
	C157.419357,105.240616 159.732086,106.642639 161.858215,113.612198 
z"/>
<path fill="#ffffff" opacity="1.000000" stroke="none" 
	d="
M209.907349,214.927856 
	C201.455856,220.776474 193.281006,226.381653 182.593933,229.247925 
	C183.261368,224.527893 183.861237,220.513733 184.391388,216.490387 
	C185.624176,207.134827 186.967392,197.790512 187.987228,188.411346 
	C188.708054,181.782074 191.134018,179.088760 197.747818,178.993271 
	C206.998199,178.859726 216.014328,180.187485 224.217865,184.750153 
	C230.716278,188.364502 231.961761,192.377762 227.214554,198.052368 
	C222.144608,204.112747 215.925064,209.211395 209.907349,214.927856 
z"/>
<path fill="#ffffff" opacity="1.000000" stroke="none" 
	d="
M191.638367,45.871601 
	C184.777405,46.276943 178.155258,46.775593 171.526276,46.894978 
	C169.482773,46.931778 167.420639,45.933861 165.367035,45.409718 
	C165.448898,44.745213 165.530762,44.080704 165.612625,43.416199 
	C169.925156,43.416199 174.252548,43.192577 178.546112,43.478016 
	C182.992203,43.773598 187.405792,44.560616 191.831482,45.148544 
	C191.950012,45.164291 192.111298,45.353466 192.128555,45.478867 
	C192.142303,45.578640 191.966309,45.704552 191.638367,45.871601 
z"/>
<path fill="#ffffff" opacity="1.000000" stroke="none" 
	d="
M147.771759,47.715240 
	C139.194458,48.542618 130.966522,49.280281 122.738586,50.017941 
	C122.658806,49.408791 122.579033,48.799641 122.499252,48.190495 
	C130.716644,47.156803 138.924942,46.038223 147.158524,45.155651 
	C148.968750,44.961609 150.492340,45.749928 147.771759,47.715240 
z"/>

</svg>