<svg width="48" height="48" viewBox="0 0 48 48" fill="none" xmlns="http://www.w3.org/2000/svg">
<path fill-rule="evenodd" clip-rule="evenodd" d="M19.7541 14.7628C20.5607 15.0564 20.9847 15.9257 20.7013 16.7045L15.0088 32.3445C14.7253 33.1233 13.8416 33.5167 13.0351 33.2231C12.2285 32.9296 11.8044 32.0602 12.0879 31.2814L17.7804 15.6414C18.0638 14.8626 18.9475 14.4692 19.7541 14.7628ZM27.3419 14.7769C28.1485 15.0704 28.5726 15.9398 28.2891 16.7186L22.5966 32.3586C22.3132 33.1374 21.4295 33.5308 20.6229 33.2372C19.8163 32.9436 19.3923 32.0743 19.6757 31.2955L25.3682 15.6555C25.6517 14.8766 26.5354 14.4833 27.3419 14.7769ZM35.9119 16.7172C36.1954 15.9384 35.7713 15.0691 34.9647 14.7755C34.1582 14.4819 33.2745 14.8753 32.991 15.6541L27.2985 31.2941C27.0151 32.0729 27.4391 32.9423 28.2457 33.2359C29.0523 33.5294 29.936 33.1361 30.2194 32.3573L35.9119 16.7172Z" fill="#0A3049"/>
</svg>
